<svg version="1.1" xmlns="http://www.w3.org/2000/svg" viewBox="-13.398598318139014 -6.753250242787201 26.797196636278027 17.056972069051252" fill="none" stroke="black" stroke-width="0.6%" vector-effect="non-scaling-stroke">
    <path d="M -10.74243 8.05688 L -2.69587 9.21261 A 3 0.86003 180 0 0 1.33015 8.82893 L 12.08078 2.67756 A 3 0.86003 180 0 0 12.3986 2.29232" />
    <path d="M -10.74243 -1.5234 L -2.69587 -0.36766 A 3 0.86003 180 0 0 1.33015 -0.75134 L 6.70547 -3.82702 L -6.70547 -5.75325 L -12.08078 -2.67756 A 3 0.86003 180 0 0 -12.3986 -2.29232 A 3 0.86003 180 0 0 -10.74243 -1.5234 Z" />
    <path d="M -12.3986 7.28795 A 3 0.86003 180 0 0 -10.74243 8.05688 L -10.74243 -1.5234" />
    <path d="M 6.70547 0.96311 L 12.08078 -2.11257" />
    <path d="M 6.70547 0.96311 L 6.70547 -3.82702" />
    <path d="M 2.13057 -4.48412 A 3 0.86003 360 0 1 2.69587 -4.42247" />
    <path d="M 10.74243 -3.26674 A 3 0.86003 360 0 1 12.3986 -2.49782 L 12.3986 2.29232" />
    <path d="M 12.3986 -2.49782 A 3 0.86003 360 0 1 12.08078 -2.11257" />
    <path d="M 10.74243 -3.26674 L 2.69587 -4.42247" />
    <path d="M -2.69587 9.21261 L -2.69587 -0.36766" />
    <path d="M 1.33015 8.82893 L 1.33015 -0.75134" />
    <path d="M 12.08078 2.67756 L 12.08078 -2.11257" />
    <path d="M -12.3986 -2.29232 L -12.3986 7.28795" />
</svg>