<svg viewBox="0 0 800 800" xmlns="http://www.w3.org/2000/svg"><path d="M329.3147305084108,400.8119548553889 L329.15951916877316,311.2550118844546 M268.54192101142286,420.803010610977 L268.2513689714785,330.9330296405036 M329.3147305084108,400.8119548553889 L268.54192101142286,420.803010610977 M329.15951916877316,311.2550118844546 L268.2513689714785,330.9330296405036 M369.48342520663925,400.8119548553889 L369.4169060610802,311.2550118844546 M369.48342520663925,400.8119548553889 L364.5198414999562,399.5017783465909 M364.5198414999562,399.5017783465909 L358.79824394933905,398.59043498495504 M358.79824394933905,398.59043498495504 L352.60445289955885,398.1231739870063 M352.60445289955885,398.1231739870063 L346.2474816346762,398.1231729331718 M346.2474816346762,398.1231729331718 L340.04434216311967,398.5904349849551 M340.04434216311967,398.5904349849551 L334.30452095047536,399.5017772921775 M334.30452095047536,399.5017772921775 L329.3147305084108,400.8119548553889 M369.4169060610802,311.2550118844546 L364.4423830581639,309.96536338265685 M364.4423830581639,309.96536338265685 L358.7081719560078,309.0682999374624 M358.7081719560078,309.0682999374624 L352.50072080319103,308.60836077055774 M352.50072080319103,308.60836077055774 L346.129720923609,308.60835973323674 M346.129720923609,308.60835973323674 L339.91288004827396,309.0682999374624 M339.91288004827396,309.0682999374624 L334.16036474118016,309.9653623447647 M334.16036474118016,309.9653623447647 L329.15951916877316,311.2550118844546 M268.19310391170524,434.21905290780774 L267.90100157269967,344.139185440629 M268.54192101142286,420.803010610977 L264.51610950866404,422.4600063479409 M264.51610950866404,422.4600063479409 L261.69230753247666,424.37084917545957 M261.69230753247666,424.37084917545957 L260.213190452567,426.4401841958118 M260.213190452567,426.4401841958118 L260.15451736422784,428.56449876149935 M260.15451736422784,428.56449876149935 L261.5209871369547,430.63727535680727 M261.5209871369547,430.63727535680727 L264.24568805038604,432.554322678137 M264.24568805038604,432.554322678137 L268.19310391170524,434.21905290780774 M268.2513689714785,330.9330296405036 L264.2165343804003,332.5640941693172 M264.2165343804003,332.5640941693172 L261.3863543804593,334.4450361515695 M261.3863543804593,334.4450361515695 L259.90382893224506,336.48199380799286 M259.90382893224506,336.48199380799286 L259.8448950677943,338.5730746414898 M259.8448950677943,338.5730746414898 L261.21427256160047,340.61342755359925 M261.21427256160047,340.61342755359925 L263.9449110421082,342.5004905184773 M263.9449110421082,342.5004905184773 L267.90100157269967,344.139185440629 M268.19310391170524,434.21905290780774 L430.26322552339377,488.60499975736764 M430.26322552339377,488.60499975736764 L435.33240228779795,489.9621077682725 M435.33240228779795,489.9621077682725 L441.1723348635871,490.9069394987023 M441.1723348635871,490.9069394987023 L447.4890510540143,491.39163917339306 M447.4890510540143,491.39163917339306 L453.96416860025414,491.39164026676326 M453.96416860025414,491.39164026676326 L460.2711940354714,490.9069394987023 M460.2711940354714,490.9069394987023 L466.09222674186714,489.96210886103114 M466.09222674186714,489.96210886103114 L471.134264580838,488.60499975736764 M471.134264580838,488.60499975736764 L531.9070085242582,468.0736673440501 M531.9070085242582,468.0736673440501 L535.8805664670298,466.3865645980734 M535.8805664670298,466.3865645980734 L538.6231548202953,464.443765390445 M538.6231548202953,464.443765390445 L539.9983881691787,462.3431538365472 M539.9983881691787,462.3431538365472 L539.9389210482813,460.19032529996866 M539.9389210482813,460.19032529996866 L538.4495348469733,458.09322701400197 M538.4495348469733,458.09322701400197 L535.6065087444289,456.1567554715848 M535.6065087444289,456.1567554715848 L531.5535093598121,454.4775456345853 M531.5535093598121,454.4775456345853 L369.48342520663925,400.8119548553889 M317.0257388303504,435.90108083969824 L324.68539167677545,437.90661027868987 M324.68539167677545,437.90661027868987 L333.57910188796336,439.2421276188994 M333.57910188796336,439.2421276188994 L343.18709325223466,439.8289155199978 M343.18709325223466,439.8289155199978 L352.94685058565165,439.63234968786276 M352.94685058565165,439.63234968786276 L362.2867709651389,438.6640303676457 M362.2867709651389,438.6640303676457 L370.66040506204143,436.9810697549772 M370.66040506204143,436.9810697549772 L377.57905061278325,434.6825795156796 M377.57905061278325,434.6825795156796 L382.64062199516826,431.90360774287524 M382.64062199516826,431.90360774287524 L385.5530114858119,428.80695328223806 M385.5530114858119,428.80695328223806 L386.15059574868525,425.57340861784036 M386.15059574868525,425.57340861784036 L384.40302367874887,422.3910660531867 M384.40302367874887,422.3910660531867 L380.4159690173313,419.44434697911606 M380.4159690173313,419.44434697911606 L374.42405480097324,416.9034034443024 M374.42405480097324,416.9034034443024 L366.77655561859495,414.9144913667125 M366.77655561859495,414.9144913667125 L357.91687381558273,413.59178352591243 M357.91687381558273,413.59178352591243 L348.3569958142035,413.01106460476655 M348.3569958142035,413.01106460476655 L338.6484145155767,413.20556854618286 M338.6484145155767,413.20556854618286 L329.35100643852996,414.1641666402942 M329.35100643852996,414.1641666402942 L321.00147936141775,415.8319729255435 M321.00147936141775,415.8319729255435 L314.08301618974616,418.1133485105506 M314.08301618974616,418.1133485105506 L308.99766087740784,420.8771660597685 M308.99766087740784,420.8771660597685 L306.04296661769735,423.9640972783315 M306.04296661769735,423.9640972783315 L305.39425067369183,427.19557794638797 M305.39425067369183,427.19557794638797 L307.09358017532963,430.3839894120231 M307.09358017532963,430.3839894120231 L311.0463330950942,433.3435199927641 M311.0463330950942,433.3435199927641 L317.0257388303504,435.90108083969824 M451.01276502424207,468.7997815240044 L453.4548705744151,469.73249475121094 M453.4548705744151,469.73249475121094 L456.47502477142973,470.4510690662777 M456.47502477142973,470.4510690662777 L459.90836351263295,470.91613148931583 M459.90836351263295,470.91613148931583 L463.5672736590667,471.1021873019922 M463.5672736590667,471.1021873019922 L467.25168897715366,470.9990305776869 M467.25168897715366,470.9990305776869 L470.7601440630338,470.61232067754696 M470.7601440630338,470.61232067754696 L473.90087886020086,469.9632636685366 M473.90087886020086,469.9632636685366 L476.5023823117052,469.08742409158583 M476.5023823117052,469.08742409158583 L478.422831006762,468.03275606474745 M478.422831006762,468.03275606474745 L479.5578198195692,466.8569446932247 M479.5578198195692,466.8569446932247 L479.84596432132776,465.6242120105796 M479.84596432132776,465.6242120105796 L479.27215751257853,464.401795310027 M479.27215751257853,464.401795310027 L477.8682710113628,463.2562775652348 M477.8682710113628,463.2562775652348 L475.71127121539564,462.2499641051815 M475.71127121539564,462.2499641051815 L472.91896023323955,461.4375259231618 M472.91896023323955,461.4375259231618 L475.8954131103078,458.12172000332134 M475.8954131103078,458.12172000332134 L476.41258223128176,454.6649124163296 M476.41258223128176,454.6649124163296 L474.4454863119251,451.26727667754994 M474.4454863119251,451.26727667754994 L470.11253505054435,448.1247722279569 M470.11253505054435,448.1247722279569 L463.66764103867285,445.4179610209245 M463.66764103867285,445.4179610209245 L455.48479545342076,443.30183899441687 M455.48479545342076,443.30183899441687 L446.0361864396687,441.89723816360157 M446.0361864396687,441.89723816360157 L435.86515913128034,441.2841969228161 M435.86515913128034,441.2841969228161 L425.5555465357399,441.49760664166905 M425.5555465357399,441.49760664166905 L415.69892161640024,442.52532339707506 M415.69892161640024,442.52532339707506 L406.86149550906777,444.30882584238464 M406.86149550906777,444.30882584238464 L399.552273677868,446.7463872507629 M399.552273677868,446.7463872507629 L394.1941314610046,449.6986312128069 M394.1941314610046,449.6986312128069 L391.09935448802815,452.9962207205496 M391.09935448802815,452.9962207205496 L390.4510553457163,456.4493202711362 M390.4510553457163,456.4493202711362 L392.29166414801506,459.8583625922668 M392.29166414801506,459.8583625922668 L396.519349060787,463.0255386282046 M396.519349060787,463.0255386282046 L402.89284128172807,465.7663769775726 M402.89284128172807,465.7663769775726 L411.04462787106695,467.92069229798847 M411.04462787106695,467.92069229798847 L420.5019302137747,469.36222365644676 M420.5019302137747,469.36222365644676 L430.7143053452358,470.00631016896125 M430.7143053452358,470.00631016896125 L441.0862666157739,469.8150805989252 M441.0862666157739,469.8150805989252 L451.01276502424207,468.7997815240044 M450.1997645530794,337.5273132081799 L369.4169060610802,311.2550118844546 M348.68097828750086,370.763975972189 L450.1997645530794,337.5273132081799 M267.90100157269967,344.139185440629 L348.68097828750086,370.763975972189 M334.48446406943555,340.05978146354335 L332.156421231857,339.0843279579545 M332.156421231857,339.0843279579545 L330.6143538281633,337.9548088402019 M330.6143538281633,337.9548088402019 L329.94743824280937,336.73703069758267 M329.94743824280937,336.73703069758267 L330.19380629615057,335.5018433979305 M330.19380629615057,335.5018433979305 L331.33847880408655,334.32100455224236 M331.33847880408655,334.32100455224236 L333.3143864258342,333.2630164983512 M333.3143864258342,333.2630164983512 L336.00638935828033,332.38917328849965 M336.00638935828033,332.38917328849965 L339.2580420898335,331.7500420705357 M339.2580420898335,331.7500420705357 L342.8806817269705,331.3825748713851 M342.8806817269705,331.3825748713851 L346.66432257597756,331.30800388692336 M346.66432257597756,331.30800388692336 L350.38973518878083,331.5306366702211 M350.38973518878083,331.5306366702211 L353.841032890677,332.03761213080196 M353.841032890677,332.03761213080196 L356.81807784707587,332.7996283779327 M356.81807784707587,332.7996283779327 L359.14801445438,333.7726109396032 M359.14801445438,333.7726109396032 L360.69527553134304,334.90022517691466 M360.69527553134304,334.90022517691466 L361.3694948858982,336.1171008880754 M361.3694948858982,336.1171008880754 L361.13086749180604,337.3525949409104 M361.13086749180604,337.3525949409104 L359.9925960381698,338.53487840127104 M359.9925960381698,338.53487840127104 L358.0202891425259,339.5951198473553 M358.0202891425259,339.5951198473553 L355.3282585146019,340.471507952391 M355.3282585146019,340.471507952391 L352.072956008108,341.1128925639715 M352.072956008108,341.1128925639715 L348.44388384352453,341.48180647930917 M348.44388384352453,341.48180647930917 L344.6524956497651,341.5566842164325 M344.6524956497651,341.5566842164325 L340.9197989064618,341.33314900019286 M340.9197989064618,341.33314900019286 L337.4633489990965,340.8242686558745 M337.4633489990965,340.8242686558745 L334.48446406943555,340.05978146354335 M450.14367827999433,382.5645904955229 L450.1997645530794,337.5273132081799 M531.7005708434607,409.3296701544727 L450.14367827999433,382.5645904955229 M531.5535093598121,454.4775456345853 L531.7005708434607,409.3296701544727 M430.26322552339377,488.60499975736764 L430.29762103427015,443.1914602301749 M348.7378186535084,416.0657476802463 L430.29762103427015,443.1914602301749 M348.7378186535084,416.0657476802463 L348.68097828750086,370.763975972189 M531.7005708434607,409.3296701544727 L535.7581378274206,410.9957963635497 M535.7581378274206,410.9957963635497 L538.6043928719134,412.91718133939804 M538.6043928719134,412.91718133939804 L540.0955050017299,414.99794349927004 M540.0955050017299,414.99794349927004 L540.1551049322057,417.13400377210894 M540.1551049322057,417.13400377210894 L538.7784006062342,419.21825572458397 M538.7784006062342,419.21825572458397 L536.0328076243915,421.14592608814064 M536.0328076243915,421.14592608814064 L532.0548595102819,422.81989246804704 M531.9070085242582,468.0736673440501 L532.0548595102819,422.81989246804704 M471.134264580838,488.60499975736764 L471.214520772883,443.1914602301749 M471.214520772883,443.1914602301749 L466.1668451894738,444.5380154569862 M466.1668451894738,444.5380154569862 L460.3392916690033,445.4754988718498 M460.3392916690033,445.4754988718498 L454.02519183093943,445.9564306449962 M454.02519183093943,445.9564306449962 L447.5428047005691,445.9564295601279 M447.5428047005691,445.9564295601279 L441.2189923329313,445.4754988718499 M441.2189923329313,445.4754988718499 L435.37249649327083,444.53801437272534 M435.37249649327083,444.53801437272534 L430.29762103427015,443.1914602301749 M471.214520772883,443.1914602301749 L532.0548595102819,422.81989246804704 M334.57113049056824,394.11672689504036 L337.5460639668539,394.88851675372644 M337.5460639668539,394.88851675372644 L340.9979214610115,395.40225793709595 M340.9979214610115,395.40225793709595 L344.72565289677124,395.6279283235292 M344.72565289677124,395.6279283235292 L348.5119931137475,395.5523353700688 M348.5119931137475,395.5523353700688 L352.1362297710975,395.17989762255314 M352.1362297710975,395.17989762255314 L355.38719172156266,394.53238638797325 M355.38719172156266,394.53238638797325 L358.0756298389678,393.64762650336627 M358.0756298389678,393.64762650336627 L360.04530105813467,392.57725644530547 M360.04530105813467,392.57725644530547 L361.1820460213978,391.3836777730791 M361.1820460213978,391.3836777730791 L361.42034337436337,390.1363793399232 M361.42034337436337,390.1363793399232 L360.74700784475084,388.9078763269021 M360.74700784475084,388.9078763269021 L359.2017914387123,387.7694869690807 M359.2017914387123,387.7694869690807 L356.8749403391145,386.78720634410456 M356.8749403391145,386.78720634410456 L353.9018419814749,386.01790772214684 M353.9018419814749,386.01790772214684 L350.45512302671483,385.5060870655148 M350.45512302671483,385.5060870655148 L346.73465637465705,385.2813265228471 M346.73465637465705,385.2813265228471 L342.9560429070432,385.35661020457803 M342.9560429070432,385.35661020457803 L339.33822165557643,385.7275893539936 M339.33822165557643,385.7275893539936 L336.09089974713,386.37282868997517 M336.09089974713,386.37282868997517 L333.40248921486756,387.2550227805872 M333.40248921486756,387.2550227805872 L331.4292268071115,388.32312094147903 M331.4292268071115,388.32312094147903 L330.286097785717,389.5152431371878 M330.286097785717,389.5152431371878 L330.04008034224654,390.76223229808693 M330.04008034224654,390.76223229808693 L330.7061315276897,391.99164515338265 M330.7061315276897,391.99164515338265 L332.24616809174205,393.1319550346252 M332.24616809174205,393.1319550346252 L334.57113049056824,394.11672689504036 M334.57113049056824,394.11672689504036 L328.7237044153459,408.0423726103952 M328.7237044153459,408.0423726103952 L322.8752398136236,421.9704909968476 M322.8752398136236,421.9704909968476 L317.0257388303504,435.90108083969824 M451.0702193852659,423.5403532534686 L453.5150655874752,424.46580488025575 M453.5150655874752,424.46580488025575 L456.53860509889074,425.1787850231666 M456.53860509889074,425.1787850231666 L459.9757887908833,425.6402270091756 M459.9757887908833,425.6402270091756 L463.63879292211897,425.8248344333291 M463.63879292211897,425.8248344333291 L467.32732674472464,425.72248075122207 M467.32732674472464,425.72248075122207 L470.83969897521933,425.3387813056014 M470.83969897521933,425.3387813056014 L473.9839349084433,424.6947772141906 M473.9839349084433,424.6947772141906 L476.5883319904734,423.8257563512504 M476.5883319904734,423.8257563512504 L478.5109090693434,422.77929972345237 M478.5109090693434,422.77929972345237 L479.64714562996846,421.6126435162994 M479.64714562996846,421.6126435162994 L479.9355903277206,420.38950984876374 M479.9355903277206,420.38950984876374 L479.3611211479809,419.17661248909553 M479.3611211479809,419.17661248909553 L477.9556471301084,418.04001584010257 M477.9556471301084,418.04001584010257 L475.79622218596984,417.0415398486374 M475.79622218596984,417.0415398486374 L473.0007810857985,416.23542949887235 M473.0007810857985,416.23542949887235 L472.91896023323955,461.4375259231618 M451.0702193852659,423.5403532534686 L451.01276502424207,468.7997815240044 M473.0007810857985,416.23542949887235 L475.9805003912869,412.9454523591484 M475.9805003912869,412.9454523591484 L476.498187976734,409.51557699982914 M476.498187976734,409.51557699982914 L474.5288435864168,406.1444175518843 M474.5288435864168,406.1444175518843 L470.1910172537067,403.0264057452504 M470.1910172537067,403.0264057452504 L463.7389107779226,400.3406948434598 M463.7389107779226,400.3406948434598 L455.54693506981516,398.2410707687503 M455.54693506981516,398.2410707687503 L446.08780371746127,396.8474217247245 M446.08780371746127,396.8474217247245 L435.905463246041,396.2391606858412 M435.905463246041,396.2391606858412 L425.5843909006705,396.4509063193608 M425.5843909006705,396.4509063193608 L415.71681176349307,397.4706096203231 M415.71681176349307,397.4706096203231 L406.8695617178953,399.24020658765863 M406.8695617178953,399.24020658765863 L399.5522094953077,401.65876524243555 M399.5522094953077,401.65876524243555 L394.1881008000638,404.5879975535565 M394.1881008000638,404.5879975535565 L391.0898715358161,407.8598880606411 M391.0898715358161,407.8598880606411 L390.4408430703009,411.28608175894385 M390.4408430703009,411.28608175894385 L392.2834986883663,414.66856661069886 M392.2834986883663,414.66856661069886 L396.51589853823657,417.8110739275565 M396.51589853823657,417.8110739275565 L402.8965084752612,420.5305677750045 M402.8965084752612,420.5305677750045 L411.05740652270606,422.6681084875126 M411.05740652270606,422.6681084875126 L420.5252843493508,424.0984164704676 M420.5252843493508,424.0984164704676 L430.74907980466435,424.7374885913419 M430.74907980466435,424.7374885913419 L441.1326351125571,424.5477477775264 M441.1326351125571,424.5477477775264 L451.0702193852659,423.5403532534686 M450.14367827999433,382.5645904955229 L348.7378186535084,416.0657476802463 M334.57113049056824,394.11672689504036 L334.48446406943555,340.05978146354335" stroke="black"  stroke-width="4"  fill="red"/></svg>