<svg version="1.1" xmlns="http://www.w3.org/2000/svg" viewBox="-13.416982467421699 -6.761962451680603 26.833964934843397 17.10028245103289" fill="none" stroke="black" stroke-width="0.6%" vector-effect="non-scaling-stroke">
    <path d="M -10.76647 8.07492 L -2.72845 9.2456 A 3 0.8675 180 0 0 1.30038 8.86105 L 12.09632 2.66287 A 3 0.8675 180 0 0 12.41698 2.27265" />
    <path d="M -10.76647 -1.49787 L -2.72845 -0.3272 A 3 0.8675 180 0 0 1.30038 -0.71174 L 6.69835 -3.81083 L -6.69835 -5.76196 L -12.09632 -2.66287 A 3 0.8675 180 0 0 -12.41698 -2.27265 A 3 0.8675 180 0 0 -10.76647 -1.49787 Z" />
    <path d="M -12.41698 7.30015 A 3 0.8675 180 0 0 -10.76647 8.07492 L -10.76647 -1.49787" />
    <path d="M -2.12501 -2.50571 A 1.65 0.47712 360 0 1 -5.24865 -2.72034 A 1.65 0.47712 360 0 1 -1.94865 -2.72034 A 1.65 0.47712 360 0 1 -2.12501 -2.50571 Z" />
    <path d="M 6.69835 0.97557 L 12.09632 -2.12352" />
    <path d="M 6.69835 0.97557 L 6.69835 -3.81083" />
    <path d="M 1.63098 -4.54886 A 3 0.8675 360 0 1 2.72845 -4.4592" />
    <path d="M 10.76647 -3.28852 A 3 0.8675 360 0 1 12.41698 -2.51375 L 12.41698 2.27265" />
    <path d="M 12.41698 -2.51375 A 3 0.8675 360 0 1 12.09632 -2.12352" />
    <path d="M 10.76647 -3.28852 L 2.72845 -4.4592" />
    <path d="M 6.69835 -1.09632 A 4.5 1.30124 180 0 0 6.74915 -1.29129 A 4.5 1.30124 180 0 0 6.69835 -1.48626" />
    <path d="M -2.72845 9.2456 L -2.72845 -0.3272" />
    <path d="M 1.30038 8.86105 L 1.30038 -0.71174" />
    <path d="M 12.09632 2.66287 L 12.09632 -2.12352" />
    <path d="M -12.41698 -2.27265 L -12.41698 7.30015" />
</svg>