<svg viewBox="0 0 1000 1000" xmlns="http://www.w3.org/2000/svg"><path d="M185.4052715887567,442.11367784119795 L185.1202252144666,58.87618904931935 M-84.53794401927132,556.7488894976316 L-85.06861475193182,173.1454688990043 M185.4052715887567,442.11367784119795 L-84.53794401927132,556.7488894976316 M185.1202252144666,58.87618904931935 L-85.06861475193182,173.1454688990043 M364.89082929716983,442.11367784119795 L364.7686665653312,58.87618904931935 M364.89082929716983,442.11367784119795 L342.68378564917555,434.57866090415564 M342.68378564917555,434.57866090415564 L317.0904962847033,429.33578812085045 M317.0904962847033,429.33578812085045 L289.3928238864844,426.64716903750923 M289.3928238864844,426.64716903750923 L260.97748436880073,426.6471629733571 M260.97748436880073,426.6471629733571 L233.26690034416578,429.33578812085045 M233.26690034416578,429.33578812085045 L207.64847511645462,434.578654838975 M207.64847511645462,434.578654838975 L185.4052715887567,442.11367784119795 M364.7686665653312,58.87618904931935 L342.5414814379763,51.36523385437761 M342.5414814379763,51.36523385437761 L316.92497725184427,46.13910390463934 M316.92497725184427,46.13910390463934 L289.20217806127755,43.459070988637905 M289.20217806127755,43.459070988637905 L260.7610558116715,43.45906494385213 M260.7610558116715,43.45906494385213 L233.02532156587841,46.13910390463934 M233.02532156587841,46.13910390463934 L207.38363586608375,51.36522780856535 M207.38363586608375,51.36522780856535 L185.1202252144666,58.87618904931935 M-85.01550428677808,633.3285888131558 L-85.54704360690926,249.4808565958926 M-84.53794401927132,556.7488894976316 L-102.34014432117306,566.2224041590971 M-102.34014432117306,566.2224041590971 L-114.7590933138913,577.1418851897423 M-114.7590933138913,577.1418851897423 L-121.17058207145976,588.9606096605487 M-121.17058207145976,588.9606096605487 L-121.25090074950606,601.0863633416423 M-121.25090074950606,601.0863633416423 L-114.99364579500923,612.9111248839813 M-114.99364579500923,612.9111248839813 L-102.71036465304894,623.8415013893432 M-102.71036465304894,623.8415013893432 L-85.01550428677808,633.3285888131558 M-85.06861475193182,173.1454688990043 L-102.88704578264424,182.58875413235484 M-102.88704578264424,182.58875413235484 L-115.31734510607339,193.4733938947449 M-115.31734510607339,193.4733938947449 L-121.73473194704775,205.25441044060898 M-121.73473194704775,205.25441044060898 L-121.8151967218248,217.3414794205409 M-121.8151967218248,217.3414794205409 L-115.5523241916087,229.1285192535446 M-115.5523241916087,229.1285192535446 L-103.25793948487387,240.02402959764333 M-103.25793948487387,240.02402959764333 L-85.54704360690926,249.4808565958926 M-85.01550428677808,633.3285888131558 L634.8369772076423,940.9038494781009 M634.8369772076423,940.9038494781009 L657.1879084688271,948.5206699270535 M657.1879084688271,948.5206699270535 L682.9424487498776,953.8219138758171 M682.9424487498776,953.8219138758171 L710.80762767541,956.5409289230845 M710.80762767541,956.5409289230845 L739.383963240526,956.5409350561479 M739.383963240526,956.5409350561479 L767.2361133340868,953.8219138758171 M767.2361133340868,953.8219138758171 L792.9652091401497,948.5206760590711 M792.9652091401497,948.5206760590711 L815.2796167131926,940.9038494781009 M815.2796167131926,940.9038494781009 L1085.2228239121323,825.3268642381933 M1085.2228239121323,825.3268642381933 L1102.9538193781143,815.8008664059894 M1102.9538193781143,815.8008664059894 L1115.2620975193568,804.8256780328592 M1115.2620975193568,804.8256780328592 L1121.532020494386,792.9524310406435 M1121.532020494386,792.9524310406435 L1121.451343903898,780.7769703835856 M1121.451343903898,780.7769703835856 L1115.0265835396303,768.9098098569012 M1115.0265835396303,768.9098098569012 L1102.582052742822,757.9455717882405 M1102.582052742822,757.9455717882405 L1084.7433059864052,748.4332424963233 M1084.7433059864052,748.4332424963233 L364.89082929716983,442.11367784119795 M132.2686855394835,642.9098577408063 L166.42124408316454,654.3281045896813 M166.42124408316454,654.3281045896813 L206.0127162536312,661.9282366491491 M206.0127162536312,661.9282366491491 L248.73823491006337,665.2666369343519 M248.73823491006337,665.2666369343519 L292.10909628693287,664.1483787723273 M292.10909628693287,664.1483787723273 L333.5987252200589,658.6387551154976 M333.5987252200589,658.6387551154976 L370.79092489436204,649.0594277679705 M370.79092489436204,649.0594277679705 L401.52142194560327,635.9693979526662 M401.52142194560327,635.9693979526662 L424.00427404673917,620.1319819058888 M424.00427404673917,620.1319819058888 L436.9356516142673,602.469863444308 M436.9356516142673,602.469863444308 L439.56899892863083,584.0109561799221 M439.56899892863083,584.0109561799221 L431.75728013440846,565.8283388662734 M431.75728013440846,565.8283388662734 L413.9601164285031,548.9778069868603 M413.9601164285031,548.9778069868603 L387.2158052432036,534.4367093210024 M387.2158052432036,534.4367093210024 L353.08005945558176,523.0476455272791 M353.08005945558176,523.0476455272791 L313.53530899801,515.4700049641511 M313.53530899801,515.4700049641511 L270.87574294937576,512.1422628457265 M270.87574294937576,512.1422628457265 L227.57495610673936,513.2569041898388 M227.57495610673936,513.2569041898388 L186.14345936336787,518.7494599126261 M186.14345936336787,518.7494599126261 L148.98412115837664,528.302173591403 M148.98412115837664,528.302173591403 L118.25370098081282,541.3621469716102 M118.25370098081282,541.3621469716102 L95.7381235614784,557.1729493779143 M95.7381235614784,557.1729493779143 L82.74870118505106,574.8179877629291 M82.74870118505106,574.8179877629291 L80.04529791878508,593.2732660396725 M80.04529791878508,593.2732660396725 L87.79100960372898,611.466541505556 M87.79100960372898,611.466541505556 L105.54133647526669,628.339577019342 M105.54133647526669,628.339577019342 L132.2686855394835,642.9098577408063 M727.0577838370104,829.4254202565517 L737.838305425492,834.6889347272664 M737.838305425492,834.6889347272664 L751.1817203944519,838.7431010305519 M751.1817203944519,838.7431010305519 L766.3602623222839,841.3665402871303 M766.3602623222839,841.3665402871303 L782.545867936355,842.4159967877475 M782.545867936355,842.4159967877475 L798.8553275069258,841.8341430445653 M798.8553275069258,841.8341430445653 L814.3986948522107,839.652766730799 M814.3986948522107,839.652766730799 L828.3279394975617,835.9910099532882 M828.3279394975617,835.9910099532882 L839.883248534064,831.0487960086022 M839.883248534064,831.0487960086022 L848.4346593874321,825.0959161026822 M848.4346593874321,825.0959161026822 L853.516402319141,818.4572450286585 M853.516402319141,818.4572450286585 L854.8520846019371,811.4949065623794 M854.8520846019371,811.4949065623794 L852.3696907621322,804.5885179987292 M852.3696907621322,804.5885179987292 L846.2053675118292,798.114499720035 M846.2053675118292,798.114499720035 L836.6957396292058,792.4255387121038 M836.6957396292058,792.4255387121038 L824.3595661380334,787.8314662230192 M824.3595661380334,787.8314662230192 L837.7022600254276,769.071092918152 M837.7022600254276,769.071092918152 L840.1558991575349,749.4948477177797 M840.1558991575349,749.4948477177797 L831.5852376216503,730.2356645539861 M831.5852376216503,730.2356645539861 L812.4924000535689,712.4067326835986 M812.4924000535689,712.4067326835986 L783.9864399602468,697.0374043576583 M783.9864399602468,697.0374043576583 L747.718145978285,685.0140885180483 M747.718145978285,685.0140885180483 L705.7842001444509,677.0296245860309 M705.7842001444509,677.0296245860309 L660.6062226424563,673.5438243251774 M660.6062226424563,673.5438243251774 L614.791752858844,674.7573550128875 M614.791752858844,674.7573550128875 L570.984738901294,680.6003593464043 M570.984738901294,680.6003593464043 L531.7141547876059,690.7364233953147 M531.7141547876059,690.7364233953147 L499.248919227884,704.5816576707633 M499.248919227884,704.5816576707633 L475.46734230258227,721.3379036950421 M475.46734230258227,721.3379036950421 L461.7484536329537,740.038259213405 M461.7484536329537,740.038259213405 L458.89149948193347,759.6024361340089 M458.89149948193347,759.6024361340089 L467.06846641336637,778.898896737036 M467.06846641336637,778.898896737036 L485.81258929152136,796.8102084802922 M485.81258929152136,796.8102084802922 L514.0439115079694,812.2979581414614 M514.0439115079694,812.2979581414614 L550.1307373795137,824.4632920790131 M550.1307373795137,824.4632920790131 L591.9836701591047,832.599570395523 M591.9836701591047,832.599570395523 L637.1768030130003,836.2338836003248 M637.1768030130003,836.2338836003248 L683.0891962345054,835.1549210521368 M683.0891962345054,835.1549210521368 L727.0577838370104,829.4254202565517 M724.4329702356227,211.29755046499707 L364.7686665653312,58.87618904931935 M274.1160544661587,402.52709467309285 L724.4329702356227,211.29755046499707 M-85.54704360690926,249.4808565958926 L274.1160544661587,402.52709467309285 M210.05228718535693,225.93079151969664 L199.66435019226185,220.29560106955614 M199.66435019226185,220.29560106955614 L192.76122750669822,213.76845480667038 M192.76122750669822,213.76845480667038 L189.7435084009852,206.72897780741772 M189.7435084009852,206.72897780741772 L190.78571124744565,199.58641717868687 M190.78571124744565,199.58641717868687 L195.82636430682874,192.75582383770325 M195.82636430682874,192.75582383770325 L204.571780231881,186.63394813682186 M204.571780231881,186.63394813682186 L216.51328203158846,181.57623050223822 M216.51328203158846,181.57623050223822 L230.95687711808864,177.87621972927724 M230.95687711808864,177.87621972927724 L247.0635772081689,175.74860650919254 M247.0635772081689,175.74860650919254 L263.898067573795,175.31681824978205 M263.898067573795,175.31681824978205 L280.48289720883355,176.60590182371948 M280.48289720883355,176.60590182371948 L295.8550634736788,179.541080728974 M295.8550634736788,179.541080728974 L309.12179056579464,183.95205771057942 M309.12179056579464,183.95205771057942 L319.51228885525745,189.5828595491614 M319.51228885525745,189.5828595491614 L326.4224861016257,196.10662257716268 M326.4224861016257,196.10662257716268 L329.45017233681114,203.1444967785132 M329.45017233681114,203.1444967785132 L328.41854583633176,210.2876022279948 M328.41854583633176,210.2876022279948 L323.38664114038056,217.12075712930624 M323.38664114038056,217.12075712930624 L314.6461667551959,223.2466350517899 M314.6461667551959,223.2466350517899 L302.70465333401137,228.3088726407999 M302.70465333401137,228.3088726407999 L288.25609612669643,232.0128856343827 M288.25609612669643,232.0128856343827 L272.14063446871467,234.14307254834898 M272.14063446871467,234.14307254834898 L255.29556495433894,234.57540562656396 M255.29556495433894,234.57540562656396 L238.7007764314797,233.2847192549172 M238.7007764314797,233.2847192549172 L223.3215530043467,230.34615711315587 M223.3215530043467,230.34615711315587 L210.05228718535693,225.93079151969664 M724.3307883059658,403.247481624278 L724.4329702356227,211.29755046499707 M1085.0096078581353,556.4132892406476 L724.3307883059658,403.247481624278 M1084.7433059864052,748.4332424963233 L1085.0096078581353,556.4132892406476 M634.8369772076423,940.9038494781009 L634.8986838759639,748.5776612714785 M274.2186555555463,594.7831804453288 L634.8986838759639,748.5776612714785 M274.2186555555463,594.7831804453288 L274.1160544661587,402.52709467309285 M1085.0096078581353,556.4132892406476 L1102.8564996343482,565.9104752890976 M1102.8564996343482,565.9104752890976 L1115.3067263963217,576.8572598210905 M1115.3067263963217,576.8572598210905 L1121.734446670277,588.7055307962077 M1121.734446670277,588.7055307962077 L1121.8151967218248,600.8616125820915 M1121.8151967218248,600.8616125820915 L1115.542454845235,612.7159630987987 M1115.542454845235,612.7159630987987 L1103.2286048098717,623.6736854860092 M1103.2286048098717,623.6736854860092 L1085.4895624536239,633.1845245289262 M1085.2228239121323,825.3268642381933 L1085.4895624536239,633.1845245289262 M815.2796167131926,940.9038494781009 L815.4235989392761,748.5776612714786 M815.4235989392761,748.5776612714786 L793.099027616606,756.1823762965901 M793.099027616606,756.1823762965901 L767.3582061734013,761.4751849188236 M767.3582061734013,761.4751849188236 L739.493357888244,764.189882844933 M739.493357888244,764.189882844933 L710.9039903419574,764.189876721621 M710.9039903419574,764.189876721621 L683.0261013323836,761.4751849188236 M683.0261013323836,761.4751849188236 L657.2598122093202,756.182370174323 M657.2598122093202,756.182370174323 L634.8986838759639,748.5776612714785 M815.4235989392761,748.5776612714786 L1085.4895624536239,633.1845245289262 M210.210091221271,456.2779050223815 L223.47213001232967,460.7017556181517 M223.47213001232967,460.7017556181517 L238.8429730616076,463.6459646644705 M238.8429730616076,463.6459646644705 L255.42871555357024,464.93913125893295 M255.42871555357024,464.93913125893295 L272.2646000367521,464.50596739828705 M272.2646000367521,464.50596739828705 L288.37127245572077,462.3716870300742 M288.37127245572077,462.3716870300742 L302.81194781912086,458.66055612723545 M302.81194781912086,458.66055612723545 L314.74694532788703,453.58859030294917 M314.74694532788703,453.58859030294917 L323.4826484127987,447.45093971840265 M323.4826484127987,447.45093971840265 L328.511803244479,440.60465239762624 M328.511803244479,440.60465239762624 L329.54286032402047,433.44781826041145 M329.54286032402047,433.44781826041145 L326.5168172099627,426.39641703631355 M326.5168172099627,426.39641703631355 L319.6103792107071,419.8601146060994 M319.6103792107071,419.8601146060994 L309.22553715638946,414.2184893360056 M309.22553715638946,414.2184893360056 L295.96603433159555,409.79903339022405 M295.96603433159555,409.79903339022405 L280.6022407583107,406.8582122352868 M280.6022407583107,406.8582122352868 L264.02644630302456,405.56665064376625 M264.02644630302456,405.56665064376625 L247.2011294384692,405.9992689360106 M247.2011294384692,405.9992689360106 L231.10320902749197,408.1309720659757 M231.10320902749197,408.1309720659757 L216.6674903714893,411.83809524167964 M216.6674903714893,411.83809524167964 L204.73250446520763,416.90553489269485 M204.73250446520763,416.90553489269485 L195.99186522021103,423.03917774912435 M195.99186522021103,423.03917774912435 L190.95397156342858,429.88289998852565 M190.95397156342858,429.88289998852565 L189.91234966344825,437.03918855539 M189.91234966344825,437.03918855539 L192.9284365126466,444.09219478262276 M192.9284365126466,444.09219478262276 L199.82780766582664,450.6318851025944 M199.82780766582664,450.6318851025944 L210.210091221271,456.2779050223815 M210.210091221271,456.2779050223815 L184.22946528059305,518.4889297232805 M184.22946528059305,518.4889297232805 L158.24899314225036,580.6995836750289 M158.24899314225036,580.6995836750289 L132.2686855394835,642.9098577408063 M727.1614169269525,637.276558755757 L737.9468543132493,642.5316979435145 M737.9468543132493,642.5316979435145 L751.2963514891393,646.5794134566296 M751.2963514891393,646.5794134566296 L766.4818101772988,649.1986785104032 M766.4818101772988,649.1986785104032 L782.6747894894644,650.2464652199992 M782.6747894894644,650.2464652199992 L798.9916769686236,649.6655372634248 M798.9916769686236,649.6655372634248 L814.5421207460972,647.4876317633809 M814.5421207460972,647.4876317633809 L828.4777039595066,643.831701354083 M828.4777039595066,643.831701354083 L840.0382677733863,638.8973513702638 M840.0382677733863,638.8973513702638 L848.5935631392528,632.9539438924626 M848.5935631392528,632.9539438924626 L853.6776089135483,626.3258369058135 M853.6776089135483,626.3258369058135 L855.0138874262545,619.374578035786 M855.0138874262545,619.374578035786 L852.5303514379439,612.4791804955571 M852.5303514379439,612.4791804955571 L846.3632106591105,606.015465573249 M846.3632106591105,606.015465573249 L836.8492439990576,600.3355588433262 M836.8492439990576,600.3355588433262 L824.5074472881763,595.7487982887876 M824.5074472881763,595.7487982887876 L824.3595661380334,787.8314662230192 M727.1614169269525,637.276558755757 L727.0577838370104,829.4254202565517 M824.5074472881763,595.7487982887876 L837.8561842942936,577.0182861509054 M837.8561842942936,577.0182861509054 L840.3109078062387,557.4732043861026 M840.3109078062387,557.4732043861026 L831.7363152808707,538.2446835473868 M831.7363152808707,538.2446835473868 L812.6347644864271,520.4441401164042 M812.6347644864271,520.4441401164042 L784.1158170552718,505.0992863516408 M784.1158170552718,505.0992863516408 L747.831014422234,493.0951183809049 M747.831014422234,493.0951183809049 L705.8779922326379,485.1233709714059 M705.8779922326379,485.1233709714059 L660.6794702515058,481.6431225927239 M660.6794702515058,481.6431225927239 L614.8441707626097,482.85472046001496 M614.8441707626097,482.85472046001496 L571.0172409156309,488.688418695236 M571.0172409156309,488.688418695236 L531.728801954363,498.808339913901 M531.728801954363,498.808339913901 L499.24880275863796,512.6315256926571 M499.24880275863796,512.6315256926571 L475.45640757140353,529.3610899244869 M475.45640757140353,529.3610899244869 L461.7312747532775,548.0316711592948 M461.7312747532775,548.0316711592948 L458.8730168600725,567.5647020634322 M458.8730168600725,567.5647020634322 L467.05370197593663,586.8304464823773 M467.05370197593663,586.8304464823773 L485.8063556010781,604.7132501533217 M485.8063556010781,604.7132501533217 L514.0505316761031,620.176351645689 M514.0505316761031,620.176351645689 L550.1537923578202,632.3223265421589 M550.1537923578202,632.3223265421589 L592.0257886265217,640.4456581677481 M592.0257886265217,640.4456581677481 L637.2395066585552,644.0741885510895 M637.2395066585552,644.0741885510895 L683.1728100594385,642.9969428057525 M683.1728100594385,642.9969428057525 L727.1614169269525,637.276558755757 M724.3307883059658,403.247481624278 L274.2186555555463,594.7831804453288 M210.210091221271,456.2779050223815 L210.05228718535693,225.93079151969664" stroke="black"  stroke-width="4"  fill="red"/></svg>