<svg viewBox="0 0 1000 1000" xmlns="http://www.w3.org/2000/svg"><path d="M248.32421727100524,453.69094227295835 L248.0961801715731,147.1009512394554 M32.369644784582704,545.3991115981053 L31.945108198454307,238.5163751192032 M248.32421727100524,453.69094227295835 L32.369644784582704,545.3991115981053 M248.0961801715731,147.1009512394554 L31.945108198454307,238.5163751192032 M391.9126634377357,453.69094227295835 L391.8149332522648,147.1009512394554 M391.9126634377357,453.69094227295835 L374.14702851934027,447.66292872332446 M374.14702851934027,447.66292872332446 L353.6723970277625,443.4686304966804 M353.6723970277625,443.4686304966804 L331.51425910918744,441.3177352300074 M331.51425910918744,441.3177352300074 L308.7819874950404,441.3177303786857 M308.7819874950404,441.3177303786857 L286.61352027533246,443.4686304966804 M286.61352027533246,443.4686304966804 L266.11878009316354,447.66292387118 M266.11878009316354,447.66292387118 L248.32421727100524,453.69094227295835 M391.8149332522648,147.1009512394554 L374.0331851503809,141.09218708350227 M374.0331851503809,141.09218708350227 L353.53998180147534,136.91128312371137 M353.53998180147534,136.91128312371137 L331.3617424490219,134.76725679091015 M331.3617424490219,134.76725679091015 L308.60884464933696,134.76725195508152 M308.60884464933696,134.76725195508152 L286.4202572527025,136.91128312371137 M286.4202572527025,136.91128312371137 L265.90690869286675,141.09218224685247 M265.90690869286675,141.09218224685247 L248.0961801715731,147.1009512394554 M31.987596570577352,606.6628710505247 L31.5623651144723,299.58468527671414 M32.369644784582704,545.3991115981053 L18.127884543061327,552.9779233272777 M18.127884543061327,552.9779233272777 L8.192725348886768,561.7135081517938 M8.192725348886768,561.7135081517938 L3.0635343428319857,571.168487728439 M3.0635343428319857,571.168487728439 L2.9992794003949257,580.8690906733138 M2.9992794003949257,580.8690906733138 L8.005083363992469,590.3288999071851 M8.005083363992469,590.3288999071851 L17.83170827756055,599.0732011114745 M17.83170827756055,599.0732011114745 L31.987596570577352,606.6628710505247 M31.945108198454307,238.5163751192032 L17.690363373884338,246.07100330588395 M17.690363373884338,246.07100330588395 L7.746123915141084,254.77871511579588 M7.746123915141084,254.77871511579588 L2.6122144423615623,264.20352835248707 M2.6122144423615623,264.20352835248707 L2.5478426225399744,273.87318353643275 M2.5478426225399744,273.87318353643275 L7.558140646712843,283.3028154028357 M7.558140646712843,283.3028154028357 L17.393648412100674,292.0192236781145 M17.393648412100674,292.0192236781145 L31.5623651144723,299.58468527671414 M31.987596570577352,606.6628710505247 L607.8695817661139,852.7230795824808 M607.8695817661139,852.7230795824808 L625.7503267750617,858.816535941643 M625.7503267750617,858.816535941643 L646.353958999902,863.0575311006539 M646.353958999902,863.0575311006539 L668.6461021403279,865.2327431384676 M668.6461021403279,865.2327431384676 L691.5071705924206,865.2327480449185 M691.5071705924206,865.2327480449185 L713.7888906672692,863.0575311006539 M713.7888906672692,863.0575311006539 L734.3721673121197,858.8165408472571 M734.3721673121197,858.8165408472571 L752.2236933705542,852.7230795824808 M752.2236933705542,852.7230795824808 L968.178259129706,760.2614913905547 M968.178259129706,760.2614913905547 L982.3630555024915,752.6406931247916 M982.3630555024915,752.6406931247916 L992.2096780154855,743.8605424262873 M992.2096780154855,743.8605424262873 L997.2256163955087,734.3619448325148 M997.2256163955087,734.3619448325148 L997.1610751231185,724.6215763068685 M997.1610751231185,724.6215763068685 L992.0212668317045,715.1278478855211 M992.0212668317045,715.1278478855211 L982.0656421942576,706.3564574305924 M982.0656421942576,706.3564574305924 L967.794644789124,698.7465939970587 M967.794644789124,698.7465939970587 L391.9126634377357,453.69094227295835 M205.81494843158657,614.3278861926451 L233.13699526653147,623.4624836717451 M233.13699526653147,623.4624836717451 L264.81017300290483,629.5425893193194 M264.81017300290483,629.5425893193194 L298.99058792805056,632.2133095474817 M298.99058792805056,632.2133095474817 L333.68727702954624,631.3187030178619 M333.68727702954624,631.3187030178619 L366.878980176047,626.9110040923981 M366.878980176047,626.9110040923981 L396.6327399154895,619.2475422143765 M396.6327399154895,619.2475422143765 L421.21713755648244,608.775518362133 M421.21713755648244,608.775518362133 L439.2034192373912,596.105585524711 M439.2034192373912,596.105585524711 L449.54852129141364,581.9758907554465 M449.54852129141364,581.9758907554465 L451.65519914290456,567.2087649439378 M451.65519914290456,567.2087649439378 L445.40582410752666,552.6626710930186 M445.40582410752666,552.6626710930186 L431.1680931428024,539.1822455894883 M431.1680931428024,539.1822455894883 L409.77264419456276,527.549367456802 M409.77264419456276,527.549367456802 L382.4640475644653,518.4381164218232 M382.4640475644653,518.4381164218232 L350.82824719840784,512.3760039713209 M350.82824719840784,512.3760039713209 L316.7005943595005,509.7138102765812 M316.7005943595005,509.7138102765812 L282.05996488539137,510.60552335187106 M282.05996488539137,510.60552335187106 L248.91476749069415,514.999567930101 M248.91476749069415,514.999567930101 L219.18729692670115,522.6417388731224 M219.18729692670115,522.6417388731224 L194.60296078465007,533.0897175772882 M194.60296078465007,533.0897175772882 L176.59049884918255,545.7383595023314 M176.59049884918255,545.7383595023314 L166.19896094804074,559.8543902103434 M166.19896094804074,559.8543902103434 L164.03623833502786,574.6186128317381 M164.03623833502786,574.6186128317381 L170.23280768298298,589.1732332044448 M170.23280768298298,589.1732332044448 L184.43306918021312,602.6716616154736 M184.43306918021312,602.6716616154736 L205.81494843158657,614.3278861926451 M681.6462270696084,763.5403362052414 L690.2706443403936,767.7511477818132 M690.2706443403936,767.7511477818132 L700.9453763155616,770.9944808244416 M700.9453763155616,770.9944808244416 L713.088209857827,773.0932322297044 M713.088209857827,773.0932322297044 L726.036694349084,773.9327974301982 M726.036694349084,773.9327974301982 L739.0842620055407,773.4673144356523 M739.0842620055407,773.4673144356523 L751.5189558817685,771.7222133846394 M751.5189558817685,771.7222133846394 L762.6623515980496,768.7928079626308 M762.6623515980496,768.7928079626308 L771.9065988272512,764.8390368068817 M771.9065988272512,764.8390368068817 L778.7477275099457,760.0767328821457 M778.7477275099457,760.0767328821457 L782.8131218553128,754.7657960229269 M782.8131218553128,754.7657960229269 L783.8816676815495,749.1959252499034 M783.8816676815495,749.1959252499034 L781.8957526097058,743.6708143989833 M781.8957526097058,743.6708143989833 L776.9642940094634,738.4915997760281 M776.9642940094634,738.4915997760281 L769.3565917033645,733.9404309696831 M769.3565917033645,733.9404309696831 L759.4876529104265,730.2651729784154 M759.4876529104265,730.2651729784154 L770.161808020342,715.2568743345219 M770.161808020342,715.2568743345219 L772.1247193260278,699.5958781742238 M772.1247193260278,699.5958781742238 L765.2681900973203,684.188531643189 M765.2681900973203,684.188531643189 L749.993920042855,669.925386146879 M749.993920042855,669.925386146879 L727.1891519681974,657.6299234861267 M727.1891519681974,657.6299234861267 L698.174516782628,648.0112708144388 M698.174516782628,648.0112708144388 L664.6273601155606,641.6236996688247 M664.6273601155606,641.6236996688247 L628.4849781139649,638.835059460142 M628.4849781139649,638.835059460142 L591.8334022870752,639.80588401031 M591.8334022870752,639.80588401031 L556.7877911210351,644.4802874771235 M556.7877911210351,644.4802874771235 L525.3713238300845,652.5891387162519 M525.3713238300845,652.5891387162519 L499.39913538230707,663.6653261366107 M499.39913538230707,663.6653261366107 L480.37387384206573,677.0703229560338 M480.37387384206573,677.0703229560338 L469.39876290636283,692.030607370724 M469.39876290636283,692.030607370724 L467.11319958554674,707.6819489072072 M467.11319958554674,707.6819489072072 L473.65477313069294,723.1191173896289 M473.65477313069294,723.1191173896289 L488.65007143321697,737.4481667842338 M488.65007143321697,737.4481667842338 L511.23512920637546,749.8383665131691 M511.23512920637546,749.8383665131691 L540.1045899036108,759.5706336632104 M540.1045899036108,759.5706336632104 L573.5869361272837,766.0796563164185 M573.5869361272837,766.0796563164185 L609.7414424104002,768.98710688026 M609.7414424104002,768.98710688026 L646.4713569876042,768.1239368417096 M646.4713569876042,768.1239368417096 L681.6462270696084,763.5403362052414 M679.5463761884982,269.0380403719976 L391.8149332522648,147.1009512394554 M319.2928435729268,422.02167573847424 L679.5463761884982,269.0380403719976 M31.5623651144723,299.58468527671414 L319.2928435729268,422.02167573847424 M268.0418297482854,280.7446332157573 L259.7314801538093,276.236480855645 M259.7314801538093,276.236480855645 L254.2089820053583,271.0147638453362 M254.2089820053583,271.0147638453362 L251.794806720788,265.38318224593405 M251.794806720788,265.38318224593405 L252.62856899795634,259.66913374294944 M252.62856899795634,259.66913374294944 L256.66109144546283,254.20465907016256 M256.66109144546283,254.20465907016256 L263.65742418550457,249.3071585094574 M263.65742418550457,249.3071585094574 L273.2106256252706,245.26098440179055 M273.2106256252706,245.26098440179055 L284.76550169447074,242.3009757834218 M284.76550169447074,242.3009757834218 L297.65086176653494,240.598885207354 M297.65086176653494,240.598885207354 L311.11845405903586,240.2534545998256 M311.11845405903586,240.2534545998256 L324.38631776706666,241.28472145897558 M324.38631776706666,241.28472145897558 L336.6840507789429,243.63286458317913 M336.6840507789429,243.63286458317913 L347.29743245263563,247.16164616846336 M347.29743245263563,247.16164616846336 L355.60983108420584,251.66628763932908 M355.60983108420584,251.66628763932908 L361.1379888813004,256.8852980617301 M361.1379888813004,256.8852980617301 L363.5601378694488,262.5155974228105 M363.5601378694488,262.5155974228105 L362.7348366690652,268.2300817823958 M362.7348366690652,268.2300817823958 L358.7093129123043,273.6966057034449 M358.7093129123043,273.6966057034449 L351.71693340415663,278.5973080414319 M351.71693340415663,278.5973080414319 L342.1637226672089,282.6470981126399 M342.1637226672089,282.6470981126399 L330.60487690135693,285.61030850750615 M330.60487690135693,285.61030850750615 L317.7125075749716,287.31445803867916 M317.7125075749716,287.31445803867916 L304.236451963471,287.66032450125124 M304.236451963471,287.66032450125124 L290.9606211451836,286.6277754039337 M290.9606211451836,286.6277754039337 L278.6572424034772,284.27692569052465 M278.6572424034772,284.27692569052465 L268.0418297482854,280.7446332157573 M679.4646306447726,422.59798529942236 L679.5463761884982,269.0380403719976 M968.0076862865083,545.1306313925181 L679.4646306447726,422.59798529942236 M967.794644789124,698.7465939970587 L968.0076862865083,545.1306313925181 M607.8695817661139,852.7230795824808 L607.918947100771,698.8621290171827 M319.3749244444369,575.826544356263 L607.918947100771,698.8621290171827 M319.3749244444369,575.826544356263 L319.2928435729268,422.02167573847424 M968.0076862865083,545.1306313925181 L982.2851997074786,552.7283802312782 M982.2851997074786,552.7283802312782 L992.2453811170574,561.4858078568724 M992.2453811170574,561.4858078568724 L997.3875573362218,570.9644246369662 M997.3875573362218,570.9644246369662 L997.45215737746,580.6892900656734 M997.45215737746,580.6892900656734 L992.433963876188,590.1727704790392 M992.433963876188,590.1727704790392 L982.5828838478974,598.9389483888074 M982.5828838478974,598.9389483888074 L968.391649962899,606.5476196231411 M968.178259129706,760.2614913905547 L968.391649962899,606.5476196231411 M752.2236933705542,852.7230795824808 L752.3388791514208,698.862129017183 M752.3388791514208,698.862129017183 L734.4792220932848,704.9459010372723 M734.4792220932848,704.9459010372723 L713.886564938721,709.180147935059 M713.886564938721,709.180147935059 L691.5946863105951,711.3519062759462 M691.5946863105951,711.3519062759462 L668.7231922735659,711.3519013772968 M668.7231922735659,711.3519013772968 L646.4208810659068,709.180147935059 M646.4208810659068,709.180147935059 L625.8078497674562,704.9458961394585 M625.8078497674562,704.9458961394585 L607.918947100771,698.8621290171827 M752.3388791514208,698.862129017183 L968.391649962899,606.5476196231411 M268.1680729770166,465.02232401790525 L278.7777040098636,468.56140449452147 M278.7777040098636,468.56140449452147 L291.0743784492859,470.91677173157643 M291.0743784492859,470.91677173157643 L304.342972442856,471.95130500714635 M304.342972442856,471.95130500714635 L317.81168002940154,471.60477391862963 M317.81168002940154,471.60477391862963 L330.69701796457645,469.89734962405936 M330.69701796457645,469.89734962405936 L342.2495582552965,466.9284449017883 M342.2495582552965,466.9284449017883 L351.79755626230946,462.8708722423593 M351.79755626230946,462.8708722423593 L358.78611873023885,457.96075177472216 M358.78611873023885,457.96075177472216 L362.80944259558305,452.4837219181009 M362.80944259558305,452.4837219181009 L363.63428825921625,446.7582546083291 M363.63428825921625,446.7582546083291 L361.21345376797,441.1171336290509 M361.21345376797,441.1171336290509 L355.6883033685655,435.8880916848795 M355.6883033685655,435.8880916848795 L347.38042972511147,431.3747914688044 M347.38042972511147,431.3747914688044 L336.77282746527635,427.8392267121792 M336.77282746527635,427.8392267121792 L324.4817926066484,425.4865697882294 M324.4817926066484,425.4865697882294 L311.22115704241946,424.45332051501293 M311.22115704241946,424.45332051501293 L297.7609035507752,424.79941514880846 M297.7609035507752,424.79941514880846 L284.8825672219934,426.5047776527806 M284.8825672219934,426.5047776527806 L273.33399229719123,429.47047619334376 M273.33399229719123,429.47047619334376 L263.78600357216595,433.5244279141559 M263.78600357216595,433.5244279141559 L256.7934921761686,438.4313421992995 M256.7934921761686,438.4313421992995 L252.76317725074273,443.9063199908205 M252.76317725074273,443.9063199908205 L251.9298797307585,449.63135084431207 M251.9298797307585,449.63135084431207 L254.3427492101171,455.2737558260982 M254.3427492101171,455.2737558260982 L259.86224613266114,460.5055080820755 M259.86224613266114,460.5055080820755 L268.1680729770166,465.02232401790525 M268.1680729770166,465.02232401790525 L247.38357222447428,514.7911437786245 M247.38357222447428,514.7911437786245 L226.59919451380006,564.5596669400231 M226.59919451380006,564.5596669400231 L205.81494843158657,614.3278861926451 M681.7291335415621,609.8212470046055 L690.3574834505994,614.0253583548117 M690.3574834505994,614.0253583548117 L701.0370811913112,617.2635307653037 M701.0370811913112,617.2635307653037 L713.1854481418391,619.3589428083227 M713.1854481418391,619.3589428083227 L726.1398315915715,620.1971721759994 M726.1398315915715,620.1971721759994 L739.1933415748988,619.7324298107399 M739.1933415748988,619.7324298107399 L751.6336965968776,617.9901054107049 M751.6336965968776,617.9901054107049 L762.7821631676052,615.0653610832665 M762.7821631676052,615.0653610832665 L772.0306142187092,611.117881096211 M772.0306142187092,611.117881096211 L778.8748505114022,606.3631551139702 M778.8748505114022,606.3631551139702 L782.9420871308387,601.0606695246507 M782.9420871308387,601.0606695246507 L784.0111099410035,595.4996624286289 M784.0111099410035,595.4996624286289 L782.0242811503549,589.9833443964458 M782.0242811503549,589.9833443964458 L777.0905685272883,584.8123724585993 M777.0905685272883,584.8123724585993 L769.479395199246,580.268447074661 M769.479395199246,580.268447074661 L759.605957830541,576.5990386310302 M759.605957830541,576.5990386310302 L759.4876529104265,730.2651729784154 M681.7291335415621,609.8212470046055 L681.6462270696084,763.5403362052414 M759.605957830541,576.5990386310302 L770.284947435435,561.6146289207243 M770.284947435435,561.6146289207243 L772.2487262449908,545.9785635088821 M772.2487262449908,545.9785635088821 L765.3890522246966,530.5957468379095 M765.3890522246966,530.5957468379095 L750.1078115891416,516.3553120931235 M750.1078115891416,516.3553120931235 L727.2926536442174,504.07942908131264 M727.2926536442174,504.07942908131264 L698.2648115377872,494.476094704724 M698.2648115377872,494.476094704724 L664.7023937861102,488.0986967771247 M664.7023937861102,488.0986967771247 L628.5435762012046,485.31449807417914 M628.5435762012046,485.31449807417914 L591.8753366100875,486.2837763680119 M591.8753366100875,486.2837763680119 L556.8137927325047,490.9507349561888 M556.8137927325047,490.9507349561888 L525.3830415634902,499.04667193112084 M525.3830415634902,499.04667193112084 L499.3990422069102,510.10522055412565 M499.3990422069102,510.10522055412565 L480.36512605712267,523.4888719395897 M480.36512605712267,523.4888719395897 L469.38501980262185,538.4253369274358 M469.38501980262185,538.4253369274358 L467.0984134880579,554.0517616507459 M467.0984134880579,554.0517616507459 L473.64296158074916,569.4643571859019 M473.64296158074916,569.4643571859019 L488.64508448086235,583.7706001226575 M488.64508448086235,583.7706001226575 L511.2404253408824,596.1410813165512 M511.2404253408824,596.1410813165512 L540.123033886256,605.8578612337271 M540.123033886256,605.8578612337271 L573.6206309012173,612.3565265341986 M573.6206309012173,612.3565265341986 L609.7916053268441,615.2593508408718 M609.7916053268441,615.2593508408718 L646.5382480475507,614.3975542446021 M646.5382480475507,614.3975542446021 L681.7291335415621,609.8212470046055 M679.4646306447726,422.59798529942236 L319.3749244444369,575.826544356263 M268.1680729770166,465.02232401790525 L268.0418297482854,280.7446332157573" stroke="black"  stroke-width="4"  fill="red"/></svg>